<?xml version="1.0" encoding="UTF-8"?>
<svg width="200px" viewBox="0 0 362 98" version="1.1" xmlns="http://www.w3.org/2000/svg" xmlns:xlink="http://www.w3.org/1999/xlink">
    <path fill="#FFFFFE" d="M70.281,41.987 C71.062,41.987 71.695,42.621 71.695,43.402 L71.695,89.556 C71.695,89.82 71.65,90.399 71.236,90.628 C71.236,90.628 61.192,97.703 44.635,97.703 C24.638,97.703 0.908,91.545 0.908,50.219 C0.908,8.893 21.635,0.297 41.84,0.297 C59.38,0.297 66.323,4.182 67.461,4.994 C67.877,5.293 68.001,5.732 68.001,6.099 L64.625,20.396 C64.625,21.178 63.811,22.055 62.93,21.785 C60.127,20.917 55.724,19.118 45.501,19.118 C33.692,19.118 21.113,22.613 21.113,49.183 C21.113,75.746 33.193,78.906 41.84,78.906 C49.17,78.906 51.821,78.002 51.821,78.002 L51.821,59.617 L40.014,59.617 C39.233,59.617 38.6,58.981 38.6,58.2 L38.6,43.402 C38.6,42.621 39.233,41.987 40.014,41.987 L70.281,41.987 Z M226.265,5.249 L226.265,94.426 C226.263,95.213 225.639,95.852 224.858,95.852 L207.776,95.852 C206.996,95.852 206.364,95.213 206.364,94.426 C206.364,94.423 206.411,56.281 206.411,56.281 L179.846,56.281 L179.846,94.426 C179.846,95.213 179.22,95.852 178.44,95.852 L161.399,95.852 C160.624,95.852 159.991,95.213 159.991,94.426 L159.991,5.249 C159.991,4.461 160.624,3.826 161.399,3.826 L178.44,3.826 C179.22,3.826 179.846,4.461 179.846,5.249 L179.846,38.183 L206.411,38.183 C206.411,38.183 206.406,5.252 206.406,5.249 C206.406,4.461 207.039,3.826 207.817,3.826 L224.859,3.826 C225.641,3.826 226.265,4.461 226.265,5.249 Z M102.44,16.95 C102.44,23.081 97.521,28.054 91.451,28.054 C85.387,28.054 80.463,23.081 80.463,16.95 C80.463,10.814 85.387,5.855 91.451,5.855 C97.521,5.855 102.44,10.814 102.44,16.95 Z M101.222,75.614 C101.222,78.018 101.222,90.402 101.222,93.563 C101.222,95.015 100.81,95.84 99.13,95.84 C91.076,95.84 83.824,95.84 83.824,95.84 C82.427,95.84 81.347,95.324 81.347,93.591 C81.347,84.148 81.347,34.614 81.347,34.614 C81.347,33.833 82.044,33.029 82.823,33.029 L99.812,33.029 C100.591,33.029 101.222,33.668 101.222,34.45 C101.222,34.45 101.222,73.329 101.222,75.614 Z M291.032,33.163 C291.812,33.163 292.443,33.803 292.443,34.59 L292.449,94.452 C292.449,95.236 291.814,95.876 291.04,95.876 L280.121,95.925 C279.575,95.925 279.07,95.536 278.877,95.152 C278.683,94.768 278.255,91.519 278.255,91.519 C278.255,91.519 269.261,97.683 258.105,97.683 C244.508,97.683 234.624,93.344 234.624,75.608 C234.624,57.875 234.624,34.59 234.624,34.59 C234.624,33.803 235.259,33.163 236.033,33.163 L253.197,33.163 C253.974,33.163 254.604,33.803 254.604,34.59 C254.604,34.59 254.604,66.743 254.604,72.722 C254.604,78.692 256.222,81.459 262.319,81.459 C268.417,81.459 272.714,78.315 272.714,78.315 L272.714,34.59 C272.714,33.803 273.346,33.163 274.121,33.163 L291.032,33.163 Z M330.584,81.405 C338.79,81.652 341.438,78.629 341.438,63.31 C341.438,48.782 335.57,46.942 329.48,47.488 C324.664,47.918 320.739,50.324 320.739,50.324 L320.739,78.564 C320.739,78.564 324.718,81.227 330.584,81.405 Z M337.254,31.16 C346.866,31.16 361.092,34.752 361.092,62.24 C361.092,89.728 352.185,97.606 336.653,97.606 C323.424,97.606 316.436,90.983 316.436,90.983 C316.436,90.983 316.011,94.616 315.716,95.096 C315.417,95.577 315.013,95.852 314.479,95.852 C314.475,95.852 302.623,95.852 302.621,95.852 C301.842,95.852 301.211,95.213 301.211,94.426 L301.211,5.249 C301.211,4.461 301.842,3.826 302.619,3.826 L319.71,3.826 C320.486,3.826 321.116,4.461 321.116,5.249 L321.116,35.445 C321.116,35.445 327.649,31.16 337.254,31.16 Z M150.202,33.021 C150.981,33.021 151.612,33.655 151.612,34.442 L151.612,48.179 C151.612,48.968 150.981,49.604 150.202,49.604 L137.417,49.604 C137.417,49.604 137.418,70.9 137.418,74.677 C137.418,78.456 139.545,81.376 145.825,81.376 C147.787,81.376 149.692,81.072 150.438,81.072 C151.186,81.072 151.851,81.71 151.851,82.496 L151.836,94.56 C151.836,95.129 151.542,95.653 151.036,95.84 C150.199,96.148 145.129,97.51 140.89,97.51 C131.615,97.51 117.869,95.585 117.869,75.988 C117.869,61.074 117.869,49.604 117.869,49.604 L108.937,49.604 C108.158,49.604 107.528,48.968 107.528,48.179 L107.528,37.212 C107.528,36.565 107.961,36.023 108.548,35.852 C109.139,35.683 117.869,33.575 117.869,33.575 L117.869,16.123 C117.869,15.472 118.232,15.174 118.91,15.174 L136.33,15.174 C137.069,15.174 137.399,15.493 137.399,16.133 C137.399,16.137 137.418,33.021 137.418,33.021 L150.202,33.021 Z"></path>
</svg>